<svg width="255" height="129" viewBox="0 0 255 129" fill="none" xmlns="http://www.w3.org/2000/svg">
<rect x="86" width="85.9947" height="85.9947" rx="15" fill="url(#paint0_linear_912_3025)"/>
<path d="M153.656 35.0405C153.656 23.1819 145.015 19.2749 136.078 19.2749V27.745C145.325 27.745 145.015 32.138 145.015 36.0449C145.015 46.7412 138.469 47.2506 133.74 46.7412C138.145 50.657 142.726 51.9878 144.584 52.1576C152.134 49.481 153.656 41.2388 153.656 35.0405Z" fill="white"/>
<path d="M116.12 66.441V39.969C123.99 54.303 133.313 53.6359 139.783 54.0946L125.704 54.303V66.441H116.12Z" fill="white"/>
<path d="M135.297 19.2749V27.7375L123.556 27.7994C123.922 43.6157 137.029 50.9291 143.536 52.6088C121.941 57.2379 114.533 37.998 113.529 27.7994H103.792V19.3368L135.297 19.2749Z" fill="white"/>
<path d="M249.636 128.352V98H255V128.352H249.636Z" fill="#1771EA"/>
<path d="M239.409 107.563H244.773V128.352H239.409V125.899C237.801 127.923 235.542 128.934 232.632 128.934C229.86 128.934 227.476 127.881 225.48 125.774C223.512 123.64 222.528 121.034 222.528 117.958C222.528 114.881 223.512 112.289 225.48 110.182C227.476 108.048 229.86 106.981 232.632 106.981C235.542 106.981 237.801 107.993 239.409 110.016V107.563ZM229.513 122.199C230.595 123.28 231.967 123.82 233.63 123.82C235.293 123.82 236.665 123.28 237.746 122.199C238.855 121.09 239.409 119.676 239.409 117.958C239.409 116.239 238.855 114.839 237.746 113.758C236.665 112.649 235.293 112.095 233.63 112.095C231.967 112.095 230.595 112.649 229.513 113.758C228.432 114.839 227.892 116.239 227.892 117.958C227.892 119.676 228.432 121.09 229.513 122.199Z" fill="#1771EA"/>
<path d="M220.477 112.718H215.779V121.367C215.779 122.087 215.959 122.614 216.32 122.947C216.68 123.279 217.207 123.473 217.899 123.529C218.592 123.556 219.452 123.543 220.477 123.487V128.352C216.791 128.768 214.185 128.421 212.661 127.312C211.164 126.204 210.415 124.222 210.415 121.367V112.718H206.798V107.563H210.415V103.363L215.779 101.742V107.563H220.477V112.718Z" fill="#1771EA"/>
<path d="M198.561 111.138C199.06 109.808 199.878 108.81 201.014 108.145C202.178 107.48 203.467 107.147 204.881 107.147V113.134C203.245 112.94 201.776 113.273 200.473 114.132C199.198 114.991 198.561 116.419 198.561 118.415V128.352H193.197V107.563H198.561V111.138Z" fill="#1771EA"/>
<path d="M186.222 125.774C184.088 127.881 181.482 128.934 178.406 128.934C175.329 128.934 172.723 127.881 170.589 125.774C168.482 123.64 167.429 121.034 167.429 117.958C167.429 114.881 168.482 112.289 170.589 110.182C172.723 108.048 175.329 106.981 178.406 106.981C181.482 106.981 184.088 108.048 186.222 110.182C188.357 112.289 189.424 114.881 189.424 117.958C189.424 121.034 188.357 123.64 186.222 125.774ZM174.373 122.074C175.454 123.155 176.798 123.695 178.406 123.695C180.013 123.695 181.358 123.155 182.439 122.074C183.52 120.993 184.06 119.621 184.06 117.958C184.06 116.294 183.52 114.922 182.439 113.841C181.358 112.76 180.013 112.22 178.406 112.22C176.798 112.22 175.454 112.76 174.373 113.841C173.319 114.922 172.793 116.294 172.793 117.958C172.793 119.621 173.319 120.993 174.373 122.074Z" fill="#1771EA"/>
<path d="M156.467 99.2471C159.267 99.2471 161.623 100.19 163.535 102.074C165.448 103.959 166.404 106.274 166.404 109.018C166.404 111.762 165.448 114.077 163.535 115.962C161.623 117.846 159.267 118.789 156.467 118.789H151.353V128.352H145.615V99.2471H156.467ZM156.467 113.425C157.687 113.425 158.699 113.009 159.502 112.178C160.306 111.319 160.708 110.265 160.708 109.018C160.708 107.743 160.306 106.69 159.502 105.858C158.699 105.026 157.687 104.611 156.467 104.611H151.353V113.425H156.467Z" fill="#1771EA"/>
<path d="M124.744 107.563H130.108V128.352H124.744V125.899C123.136 127.923 120.877 128.934 117.967 128.934C115.195 128.934 112.811 127.881 110.815 125.774C108.847 123.64 107.863 121.034 107.863 117.958C107.863 114.881 108.847 112.289 110.815 110.182C112.811 108.048 115.195 106.981 117.967 106.981C120.877 106.981 123.136 107.993 124.744 110.016V107.563ZM114.848 122.199C115.929 123.28 117.302 123.82 118.965 123.82C120.628 123.82 122 123.28 123.081 122.199C124.19 121.09 124.744 119.676 124.744 117.958C124.744 116.239 124.19 114.839 123.081 113.758C122 112.649 120.628 112.095 118.965 112.095C117.302 112.095 115.929 112.649 114.848 113.758C113.767 114.839 113.227 116.239 113.227 117.958C113.227 119.676 113.767 121.09 114.848 122.199Z" fill="#1771EA"/>
<path d="M95.0165 106.981C97.8161 106.981 100.2 108.048 102.168 110.182C104.164 112.289 105.162 114.881 105.162 117.957C105.162 121.034 104.164 123.64 102.168 125.774C100.2 127.881 97.8161 128.934 95.0165 128.934C92.106 128.934 89.8608 127.922 88.2808 125.899V128.352H82.9172V99.2471H88.2808V110.016C89.8608 107.992 92.106 106.981 95.0165 106.981ZM89.9024 122.198C90.9834 123.279 92.3555 123.82 94.0186 123.82C95.6818 123.82 97.0539 123.279 98.1349 122.198C99.2437 121.09 99.798 119.676 99.798 117.957C99.798 116.239 99.2437 114.839 98.1349 113.758C97.0539 112.649 95.6818 112.095 94.0186 112.095C92.3555 112.095 90.9834 112.649 89.9024 113.758C88.8214 114.839 88.2808 116.239 88.2808 117.957C88.2808 119.676 88.8214 121.09 89.9024 122.198Z" fill="#1771EA"/>
<path d="M72.6899 107.563H78.0535V128.352H72.6899V125.899C71.0822 127.923 68.8231 128.934 65.9126 128.934C63.1407 128.934 60.7569 127.881 58.7611 125.774C56.7931 123.64 55.8091 121.034 55.8091 117.958C55.8091 114.881 56.7931 112.289 58.7611 110.182C60.7569 108.048 63.1407 106.981 65.9126 106.981C68.8231 106.981 71.0822 107.993 72.6899 110.016V107.563ZM62.7942 122.199C63.8753 123.28 65.2474 123.82 66.9105 123.82C68.5736 123.82 69.9457 123.28 71.0267 122.199C72.1355 121.09 72.6899 119.676 72.6899 117.958C72.6899 116.239 72.1355 114.839 71.0267 113.758C69.9457 112.649 68.5736 112.095 66.9105 112.095C65.2474 112.095 63.8753 112.649 62.7942 113.758C61.7132 114.839 61.1727 116.239 61.1727 117.958C61.1727 119.676 61.7132 121.09 62.7942 122.199Z" fill="#1771EA"/>
<path d="M46.6174 128.352V98H51.981V128.352H46.6174Z" fill="#1771EA"/>
<path d="M36.3903 107.563H41.7539V128.352H36.3903V125.899C34.7826 127.923 32.5235 128.934 29.6131 128.934C26.8412 128.934 24.4573 127.881 22.4616 125.774C20.4935 123.64 19.5095 121.034 19.5095 117.958C19.5095 114.881 20.4935 112.289 22.4616 110.182C24.4573 108.048 26.8412 106.981 29.6131 106.981C32.5235 106.981 34.7826 107.993 36.3903 110.016V107.563ZM26.4947 122.199C27.5757 123.28 28.9478 123.82 30.6109 123.82C32.2741 123.82 33.6461 123.28 34.7272 122.199C35.8359 121.09 36.3903 119.676 36.3903 117.958C36.3903 116.239 35.8359 114.839 34.7272 113.758C33.6461 112.649 32.2741 112.095 30.6109 112.095C28.9478 112.095 27.5757 112.649 26.4947 113.758C25.4136 114.839 24.8731 116.239 24.8731 117.958C24.8731 119.676 25.4136 121.09 26.4947 122.199Z" fill="#1771EA"/>
<path d="M21.4128 99.2471V104.735H13.5545V128.352H7.81672V104.735H0V99.2471H21.4128Z" fill="#1771EA"/>
<defs>
<linearGradient id="paint0_linear_912_3025" x1="92.4958" y1="3.61482" x2="163.705" y2="85.9947" gradientUnits="userSpaceOnUse">
<stop stop-color="#1A7EFE"/>
<stop offset="1" stop-color="#0F57CE"/>
</linearGradient>
</defs>
</svg>
