<svg width="138" height="53" viewBox="0 0 138 53" fill="none" xmlns="http://www.w3.org/2000/svg">
<rect width="52.2787" height="52.2787" rx="10" fill="white"/>
<path d="M41.1302 21.302C41.1302 14.0929 35.8772 11.7177 30.4442 11.7177V16.8669C36.0657 16.8669 35.8772 19.5375 35.8772 21.9126C35.8772 28.4153 31.8976 28.7249 29.0223 28.4153C31.7006 30.7958 34.4852 31.6048 35.6151 31.708C40.2049 30.0808 41.1302 25.0702 41.1302 21.302Z" fill="url(#paint0_linear_312_28)"/>
<path d="M18.3109 40.3913V24.2982C23.095 33.0122 28.7631 32.6067 32.6961 32.8856L24.137 33.0122V40.3913H18.3109Z" fill="url(#paint1_linear_312_28)"/>
<path d="M29.9692 11.7176V16.8623L22.8312 16.9C23.0539 26.5151 31.0218 30.9612 34.9779 31.9823C21.8495 34.7965 17.3463 23.1 16.7358 16.9H10.8163V11.7553L29.9692 11.7176Z" fill="url(#paint2_linear_312_28)"/>
<path d="M65.9968 30.3438C67.7188 30.3438 69.168 30.9227 70.3444 32.0805C71.5208 33.2383 72.1091 34.66 72.1091 36.3456C72.1091 38.0312 71.5208 39.4529 70.3444 40.6107C69.168 41.7685 67.7188 42.3474 65.9968 42.3474H62.8511V48.2215H59.3218V30.3438H65.9968ZM65.9968 39.0528C66.7469 39.0528 67.3693 38.7974 67.8637 38.2866C68.3581 37.7588 68.6054 37.1118 68.6054 36.3456C68.6054 35.5624 68.3581 34.9154 67.8637 34.4046C67.3693 33.8938 66.7469 33.6384 65.9968 33.6384H62.8511V39.0528H65.9968Z" fill="white"/>
<path d="M84.2989 46.638C82.9861 47.932 81.3834 48.579 79.4909 48.579C77.5984 48.579 75.9957 47.932 74.6829 46.638C73.3871 45.327 72.7392 43.7265 72.7392 41.8366C72.7392 39.9467 73.3871 38.3547 74.6829 37.0607C75.9957 35.7496 77.5984 35.0941 79.4909 35.0941C81.3834 35.0941 82.9861 35.7496 84.2989 37.0607C85.6117 38.3547 86.2681 39.9467 86.2681 41.8366C86.2681 43.7265 85.6117 45.327 84.2989 46.638ZM77.0102 44.365C77.6751 45.029 78.502 45.361 79.4909 45.361C80.4798 45.361 81.3067 45.029 81.9716 44.365C82.6366 43.701 82.969 42.8582 82.969 41.8366C82.969 40.815 82.6366 39.9722 81.9716 39.3082C81.3067 38.6441 80.4798 38.3121 79.4909 38.3121C78.502 38.3121 77.6751 38.6441 77.0102 39.3082C76.3623 39.9722 76.0383 40.815 76.0383 41.8366C76.0383 42.8582 76.3623 43.701 77.0102 44.365Z" fill="white"/>
<path d="M91.8881 37.6481C92.195 36.8308 92.698 36.2179 93.397 35.8092C94.1131 35.4006 94.9059 35.1963 95.7754 35.1963V38.874C94.7695 38.7548 93.8659 38.9591 93.0645 39.4869C92.2803 40.0148 91.8881 40.8916 91.8881 42.1175V48.2215H88.589V35.4517H91.8881V37.6481Z" fill="white"/>
<path d="M105.369 38.6186H102.479V43.9308C102.479 44.3735 102.59 44.697 102.811 44.9013C103.033 45.1056 103.357 45.2248 103.783 45.2589C104.209 45.2759 104.738 45.2674 105.369 45.2333V48.2215C103.101 48.4769 101.499 48.264 100.561 47.583C99.6402 46.9019 99.1798 45.6845 99.1798 43.9308V38.6186H96.9548V35.4517H99.1798V32.8722L102.479 31.8761V35.4517H105.369V38.6186Z" fill="white"/>
<path d="M117.014 35.4517H120.313V48.2215H117.014V46.7146C116.025 47.9576 114.635 48.579 112.845 48.579C111.14 48.579 109.674 47.932 108.446 46.638C107.236 45.327 106.63 43.7265 106.63 41.8366C106.63 39.9467 107.236 38.3547 108.446 37.0607C109.674 35.7496 111.14 35.0941 112.845 35.0941C114.635 35.0941 116.025 35.7156 117.014 36.9585V35.4517ZM110.927 44.4416C111.592 45.1056 112.436 45.4377 113.459 45.4377C114.482 45.4377 115.326 45.1056 115.991 44.4416C116.673 43.7606 117.014 42.8922 117.014 41.8366C117.014 40.7809 116.673 39.9211 115.991 39.2571C115.326 38.576 114.482 38.2355 113.459 38.2355C112.436 38.2355 111.592 38.576 110.927 39.2571C110.262 39.9211 109.929 40.7809 109.929 41.8366C109.929 42.8922 110.262 43.7606 110.927 44.4416Z" fill="white"/>
<path d="M123.304 48.2215V29.5776H126.603V48.2215H123.304Z" fill="white"/>
<path d="M71.1669 4.76752V8.14461H66.3348V22.6763H62.8066V8.14461H58V4.76752H71.1669Z" fill="white"/>
<path d="M80.3766 9.88432H83.6747V22.6763H80.3766V21.1669C79.388 22.4119 77.9989 23.0345 76.2092 23.0345C74.5047 23.0345 73.0389 22.3864 71.8117 21.0901C70.6015 19.7768 69.9965 18.1735 69.9965 16.2803C69.9965 14.3871 70.6015 12.7924 71.8117 11.4961C73.0389 10.1828 74.5047 9.52614 76.2092 9.52614C77.9989 9.52614 79.388 10.1487 80.3766 11.3938V9.88432ZM74.2917 18.8899C74.9564 19.5551 75.8001 19.8877 76.8228 19.8877C77.8455 19.8877 78.6892 19.5551 79.3539 18.8899C80.0357 18.2076 80.3766 17.3378 80.3766 16.2803C80.3766 15.2228 80.0357 14.3615 79.3539 13.6963C78.6892 13.0141 77.8455 12.673 76.8228 12.673C75.8001 12.673 74.9564 13.0141 74.2917 13.6963C73.6269 14.3615 73.2946 15.2228 73.2946 16.2803C73.2946 17.3378 73.6269 18.2076 74.2917 18.8899Z" fill="white"/>
<path d="M86.6654 22.6763V4H89.9636V22.6763H86.6654Z" fill="white"/>
<path d="M102.698 9.88432H105.996V22.6763H102.698V21.1669C101.709 22.4119 100.32 23.0345 98.5303 23.0345C96.8258 23.0345 95.36 22.3864 94.1328 21.0901C92.9226 19.7768 92.3175 18.1735 92.3175 16.2803C92.3175 14.3871 92.9226 12.7924 94.1328 11.4961C95.36 10.1828 96.8258 9.52614 98.5303 9.52614C100.32 9.52614 101.709 10.1487 102.698 11.3938V9.88432ZM96.6128 18.8899C97.2775 19.5551 98.1212 19.8877 99.1439 19.8877C100.167 19.8877 101.01 19.5551 101.675 18.8899C102.357 18.2076 102.698 17.3378 102.698 16.2803C102.698 15.2228 102.357 14.3615 101.675 13.6963C101.01 13.0141 100.167 12.673 99.1439 12.673C98.1212 12.673 97.2775 13.0141 96.6128 13.6963C95.948 14.3615 95.6156 15.2228 95.6156 16.2803C95.6156 17.3378 95.948 18.2076 96.6128 18.8899Z" fill="white"/>
<path d="M116.426 9.52614C118.148 9.52614 119.614 10.1828 120.824 11.4961C122.051 12.7924 122.665 14.3871 122.665 16.2803C122.665 18.1735 122.051 19.7768 120.824 21.0901C119.614 22.3864 118.148 23.0345 116.426 23.0345C114.637 23.0345 113.256 22.4119 112.285 21.1669V22.6763H108.987V4.76752H112.285V11.3938C113.256 10.1487 114.637 9.52614 116.426 9.52614ZM113.282 18.8899C113.946 19.5551 114.79 19.8877 115.813 19.8877C116.836 19.8877 117.679 19.5551 118.344 18.8899C119.026 18.2076 119.367 17.3378 119.367 16.2803C119.367 15.2228 119.026 14.3615 118.344 13.6963C117.679 13.0141 116.836 12.673 115.813 12.673C114.79 12.673 113.946 13.0141 113.282 13.6963C112.617 14.3615 112.285 15.2228 112.285 16.2803C112.285 17.3378 112.617 18.2076 113.282 18.8899Z" fill="white"/>
<path d="M134.706 9.88432H138.004V22.6763H134.706V21.1669C133.718 22.4119 132.328 23.0345 130.539 23.0345C128.834 23.0345 127.368 22.3864 126.141 21.0901C124.931 19.7768 124.326 18.1735 124.326 16.2803C124.326 14.3871 124.931 12.7924 126.141 11.4961C127.368 10.1828 128.834 9.52614 130.539 9.52614C132.328 9.52614 133.718 10.1487 134.706 11.3938V9.88432ZM128.621 18.8899C129.286 19.5551 130.13 19.8877 131.152 19.8877C132.175 19.8877 133.019 19.5551 133.684 18.8899C134.365 18.2076 134.706 17.3378 134.706 16.2803C134.706 15.2228 134.365 14.3615 133.684 13.6963C133.019 13.0141 132.175 12.673 131.152 12.673C130.13 12.673 129.286 13.0141 128.621 13.6963C127.957 14.3615 127.624 15.2228 127.624 16.2803C127.624 17.3378 127.957 18.2076 128.621 18.8899Z" fill="white"/>
<defs>
<linearGradient id="paint0_linear_312_28" x1="18.6501" y1="11.7177" x2="42.8309" y2="35.1709" gradientUnits="userSpaceOnUse">
<stop stop-color="#1C7FFE"/>
<stop offset="1" stop-color="#1056C6"/>
</linearGradient>
<linearGradient id="paint1_linear_312_28" x1="18.6501" y1="11.7177" x2="42.8309" y2="35.1709" gradientUnits="userSpaceOnUse">
<stop stop-color="#1C7FFE"/>
<stop offset="1" stop-color="#1056C6"/>
</linearGradient>
<linearGradient id="paint2_linear_312_28" x1="11.1755" y1="11.7176" x2="27.6028" y2="35.0928" gradientUnits="userSpaceOnUse">
<stop stop-color="#1C7FFE"/>
<stop offset="1" stop-color="#1056C6"/>
</linearGradient>
</defs>
</svg>
